<svg width="51" height="41" viewBox="0 0 51 41" fill="none" xmlns="http://www.w3.org/2000/svg">
<path d="M43.0294 1.29252C43.9098 0.454324 45.0815 -0.00906328 46.297 0.000134346C47.5126 0.00933197 48.6771 0.490397 49.5447 1.34182C50.4123 2.19324 50.9153 3.34842 50.9474 4.56361C50.9796 5.77879 50.5384 6.95894 49.7169 7.85502L24.7794 39.0425C24.3506 39.5044 23.8331 39.875 23.2577 40.1323C22.6824 40.3896 22.0611 40.5282 21.431 40.5399C20.8009 40.5515 20.1749 40.436 19.5904 40.2002C19.0059 39.9644 18.475 39.6132 18.0294 39.1675L1.49193 22.63C1.03138 22.2009 0.661996 21.6834 0.405797 21.1084C0.149597 20.5334 0.0118344 19.9127 0.000729499 19.2833C-0.0103754 18.6539 0.105405 18.0287 0.341161 17.445C0.576918 16.8614 0.927821 16.3311 1.37294 15.886C1.81806 15.4409 2.34827 15.09 2.93194 14.8543C3.51562 14.6185 4.1408 14.5027 4.77019 14.5138C5.39959 14.5249 6.0203 14.6627 6.59529 14.9189C7.17029 15.1751 7.68779 15.5445 8.11693 16.005L21.2044 29.0863L42.9107 1.43002C42.9498 1.3819 42.9915 1.33599 43.0357 1.29252H43.0294Z" fill="#0093C4"/>
</svg>
