<svg width="576" height="575" viewBox="0 0 576 575" fill="none" xmlns="http://www.w3.org/2000/svg">
<path fill-rule="evenodd" clip-rule="evenodd" d="M553.363 552.363C524.074 581.652 476.586 581.652 447.297 552.363L23.033 128.099C-6.25627 98.8097 -6.25627 51.3223 23.0331 22.033C52.3224 -7.2563 99.8098 -7.25628 129.099 22.033L553.363 446.297C582.652 475.586 582.652 523.074 553.363 552.363Z" fill="black"/>
<path fill-rule="evenodd" clip-rule="evenodd" d="M22.703 552.363C51.9923 581.652 99.4797 581.652 128.769 552.363L553.033 128.099C582.322 98.8097 582.322 51.3223 553.033 22.033C523.744 -7.2563 476.256 -7.25628 446.967 22.033L22.703 446.297C-6.58637 475.586 -6.58637 523.074 22.703 552.363Z" fill="black"/>
</svg>
